PathFileType	4	(X/Y/Z)	D:\Share\Shared_Data\Ergonomics\Sit To Stand Pertubation\S2\Perturbed.trc
DataRate	CameraRate	NumFrames	NumMarkers	Units	OrigDataRate	OrigDataStartFrame	OrigNumFrames	
100	100	11	18	m	100	14318	221
Frame#	Time	R_Toe			R_ASIS			R_Pelvis			V_Sacral			L_Pelvis			L_ASIS			Clavical			R_Acromium			L_Acromium			Sternum			Torso			R_Thigh_Med			R_Thigh_Lat			R_Thigh			R_Shank_Med			R_Shank_Lat			R_Shank			R_Heel			
		X1	Y1	Z1	X2	Y2	Z2	X3	Y3	Z3	X4	Y4	Z4	X5	Y5	Z5	X6	Y6	Z6	X7	Y7	Z7	X8	Y8	Z8	X9	Y9	Z9	X10	Y10	Z10	X11	Y11	Z11	X12	Y12	Z12	X13	Y13	Z13	X14	Y14	Z14	X15	Y15	Z15	X16	Y16	Z16	X17	Y17	Z17	X18	Y18	Z18	

14318	143.17	0.43304175	0.068427841	0.14419904	-0.03816592	0.6358067	0.11856228	-0.11921764	0.6383927	0.16093149	-0.26104343	0.5822403	0.015079385	-0.17048212	0.6368689	-0.17635204	-0.066357201	0.65076196	-0.15057056	0.09417971	0.97170441	-0.010795503	0.018393808	1.0278875	0.1938152	0.010706249	1.0334656	-0.19610535	0.080138229	0.80956671	-0.0071638331	0.08799305	0.93023352	-0.12391078	0.3422027	0.50721686	0.13198199	0.30798279	0.51292181	0.23450423	0.15415866	0.62251178	0.17642632	0.29652939	0.11193637	0.10911509	0.27521515	0.1001404	0.20081491	0.30560217	0.36028867	0.243922	0.19573633	0.061307617	0.14633505
14319	143.18	0.43300864	0.068642845	0.14417285	-0.037725384	0.63539911	0.11866936	-0.1185748	0.63855334	0.16097733	-0.26095343	0.58301385	0.01526264	-0.16988921	0.63749542	-0.17586784	-0.065122688	0.65099591	-0.15055605	0.10142745	0.96728412	-0.010720204	0.026990753	1.0250533	0.19391695	0.019317686	1.030999	-0.19586841	0.084201035	0.80560028	-0.0069818139	0.094536835	0.92622266	-0.12362364	0.34183423	0.50714423	0.13173395	0.30774353	0.51292645	0.23427434	0.15401134	0.62249664	0.17620535	0.29700064	0.11219571	0.10920365	0.27513327	0.10009337	0.20093352	0.3053432	0.3602915	0.24369072	0.19567572	0.06120422	0.14636382
14320	143.19	0.43297061	0.068864288	0.14414804	-0.037155388	0.63499823	0.11882481	-0.11778683	0.63875806	0.16109625	-0.26075366	0.58390332	0.015454115	-0.16912383	0.63820563	-0.17537546	-0.063874348	0.65115771	-0.15047507	0.10887122	0.9627782	-0.010631555	0.035776627	1.0220969	0.19400873	0.028125225	1.0283861	-0.19565343	0.088431877	0.80157819	-0.0068162775	0.10125148	0.92211273	-0.12335107	0.34150827	0.50706351	0.13151401	0.30754034	0.51291577	0.23407036	0.15389909	0.62247852	0.17602007	0.29736038	0.11240952	0.10928307	0.27504492	0.10004646	0.20104822	0.30511063	0.36028149	0.24347729	0.19561482	0.061098785	0.1464039
14321	143.2	0.432927	0.069092316	0.14413205	-0.036428825	0.63458533	0.11900269	-0.11683403	0.63899182	0.16125046	-0.26042081	0.58491241	0.015644464	-0.16816481	0.63900085	-0.17489401	-0.062624821	0.65122693	-0.15034076	0.11650249	0.95819708	-0.010534968	0.044740326	1.0190289	0.19409004	0.037115749	1.0256328	-0.19546564	0.092838852	0.79751385	-0.0066674771	0.10813944	0.91791412	-0.12309762	0.34124338	0.50697571	0.13133658	0.30738446	0.51289056	0.23390192	0.15383273	0.62246014	0.17588086	0.29758502	0.11257052	0.1093574	0.27494669	0.099999611	0.20115848	0.30490756	0.36026385	0.24330513	0.19555244	0.060991165	0.14645433
14322	143.21	0.43287872	0.069324341	0.14413005	-0.035527149	0.63414832	0.11918837	-0.11570444	0.63924286	0.16141556	-0.25992819	0.58604266	0.015821447	-0.16699252	0.63987567	-0.1744323	-0.061343105	0.65120721	-0.15016669	0.12430704	0.95354199	-0.010442287	0.053874619	1.0158616	0.19416121	0.046279663	1.0227473	-0.19530719	0.097428368	0.79341718	-0.0065353827	0.11520476	0.91363599	-0.1228673	0.34105905	0.50688339	0.13121811	0.30728857	0.5128526	0.23378059	0.15382448	0.62244525	0.17579659	0.29768042	0.11268227	0.10943195	0.27483734	0.099952782	0.20126349	0.30473755	0.36024307	0.24319501	0.19548849	0.060882694	0.1465126
14323	143.22	0.43282758	0.069555077	0.14414392	-0.034438717	0.63368097	0.1193792	-0.1143919	0.63950458	0.16158163	-0.25924796	0.58729486	0.015972657	-0.1655887	0.64081964	-0.17398805	-0.05997361	0.65111334	-0.14996135	0.13226794	0.94880493	-0.01037298	0.06317506	1.0126083	0.19422282	0.055610771	1.0197399	-0.19517905	0.10220767	0.78929669	-0.0064193244	0.12245097	0.90928589	-0.12266368	0.34097464	0.50678986	0.13117564	0.30726669	0.51280377	0.23372154	0.15388716	0.6224364	0.17577417	0.297664	0.11275106	0.10951057	0.27471777	0.09990535	0.20136333	0.30460529	0.36022009	0.24316045	0.19542438	0.06077615	0.14657452
14324	143.23	0.43277545	0.06977784	0.14417256	-0.033153591	0.63317938	0.11957655	-0.11288997	0.63977386	0.16174588	-0.25835425	0.58867303	0.016090462	-0.16393605	0.64182153	-0.1735578	-0.058455666	0.65096021	-0.14973164	0.14036711	0.94397314	-0.010351576	0.072637901	1.0092814	0.19427457	0.065104027	1.0166216	-0.19508295	0.10718733	0.78516248	-0.0063169913	0.12987854	0.90487292	-0.12248946	0.34100778	0.50669778	0.13122552	0.30733395	0.51274573	0.2337442	0.15403345	0.62243439	0.17581908	0.29755255	0.11278075	0.10959419	0.27459116	0.099856003	0.2014593	0.30451813	0.36019171	0.24320796	0.19536208	0.060674984	0.14663527
14325	143.24	0.43272391	0.069986549	0.14421355	-0.031660463	0.63263824	0.11978093	-0.11118845	0.6400506	0.1619071	-0.25722601	0.59018579	0.016174875	-0.16201849	0.6428717	-0.17314146	-0.056734989	0.65075616	-0.14948502	0.14858533	0.93903784	-0.010400476	0.0822593	1.0058922	0.19431462	0.074752808	1.0134028	-0.19502103	0.11238138	0.78102795	-0.0062245274	0.1374828	0.90040771	-0.1223455	0.34117374	0.50660818	0.13138181	0.30750577	0.51267865	0.23386905	0.15427538	0.62243707	0.17593573	0.29735547	0.11277117	0.10968093	0.27446167	0.099803268	0.20155385	0.30448691	0.36015164	0.24333919	0.19530338	0.06058205	0.14669023
14326	143.25	0.43267386	0.070178032	0.144265	-0.029947273	0.63205237	0.1199924	-0.10927406	0.64033783	0.16206451	-0.25584706	0.59184546	0.016231169	-0.15982088	0.64396295	-0.17273929	-0.054768154	0.65050269	-0.14922791	0.15690312	0.93400201	-0.010532255	0.0920355	1.0024512	0.19434035	0.084548172	1.0100937	-0.19499455	0.11780691	0.77690967	-0.0061385283	0.14525377	0.89590442	-0.12223035	0.34148538	0.50652106	0.13165508	0.30779605	0.51260052	0.23411157	0.15462375	0.62244049	0.17612819	0.29707556	0.11272012	0.10976775	0.2743338	0.099745659	0.20165158	0.30452481	0.36009259	0.24355231	0.19524921	0.060498524	0.1467361
14327	143.26	0.43262534	0.070353905	0.14432684	-0.028003574	0.63142029	0.12021095	-0.10713319	0.6406416	0.16221771	-0.2542049	0.59366406	0.016264107	-0.15732959	0.64509125	-0.17235094	-0.052523369	0.65019965	-0.14896507	0.16530348	0.92888599	-0.010743107	0.10196221	0.99897052	0.19434871	0.094479965	1.0067046	-0.1950031	0.12347828	0.77282312	-0.0060587707	0.15317789	0.89137976	-0.12213982	0.34195349	0.50643622	0.13205209	0.30821658	0.51250812	0.23447859	0.1550883	0.62244025	0.1764007	0.29671814	0.112629	0.1098531	0.27421124	0.099681435	0.20176077	0.30464627	0.36000745	0.24384369	0.19519917	0.06042334	0.14677124
14328	143.27	0.43257742	0.07052137	0.14440118	-0.025822756	0.63074561	0.12043615	-0.10475493	0.64096918	0.16236731	-0.25228951	0.59564911	0.016272709	-0.15453328	0.64625653	-0.17197668	-0.049979557	0.6498512	-0.14869998	0.17377676	0.92373352	-0.01100431	0.11203313	0.99546552	0.19433614	0.1045382	1.0032463	-0.19504417	0.12938675	0.7687774	-0.0059892006	0.16124225	0.88685297	-0.12206732	0.34258829	0.50635428	0.13257539	0.30877658	0.51239728	0.23496826	0.1556778	0.62243372	0.17675687	0.29630646	0.11251015	0.10993921	0.27409521	0.099607826	0.20189301	0.30486478	0.35989038	0.24420851	0.19515201	0.060353149	0.14679529
